<?xml version="1.0" encoding="UTF-8" standalone="no"?>
<!-- Created with Inkscape (http://www.inkscape.org/) -->

<svg
   xmlns:dc="http://purl.org/dc/elements/1.1/"
   xmlns:cc="http://creativecommons.org/ns#"
   xmlns:rdf="http://www.w3.org/1999/02/22-rdf-syntax-ns#"
   xmlns:svg="http://www.w3.org/2000/svg"
   xmlns="http://www.w3.org/2000/svg"
   xmlns:sodipodi="http://sodipodi.sourceforge.net/DTD/sodipodi-0.dtd"
   xmlns:inkscape="http://www.inkscape.org/namespaces/inkscape"
   width="210mm"
   height="297mm"
   viewBox="0 0 744.09448819 1052.3622047"
   id="svg5608"
   version="1.1"
   inkscape:version="0.91 r13725"
   sodipodi:docname="ButtonSolFlisol.svg">
  <defs
     id="defs5610" />
  <sodipodi:namedview
     id="base"
     pagecolor="#ffffff"
     bordercolor="#666666"
     borderopacity="1.0"
     inkscape:pageopacity="0.0"
     inkscape:pageshadow="2"
     inkscape:zoom="0.35"
     inkscape:cx="6.4285714"
     inkscape:cy="520"
     inkscape:document-units="px"
     inkscape:current-layer="layer1"
     showgrid="false"
     inkscape:window-width="1366"
     inkscape:window-height="707"
     inkscape:window-x="0"
     inkscape:window-y="29"
     inkscape:window-maximized="1" />
  <metadata
     id="metadata5613">
    <rdf:RDF>
      <cc:Work
         rdf:about="">
        <dc:format>image/svg+xml</dc:format>
        <dc:type
           rdf:resource="http://purl.org/dc/dcmitype/StillImage" />
        <dc:title></dc:title>
      </cc:Work>
    </rdf:RDF>
  </metadata>
  <g
     inkscape:label="Camada 1"
     inkscape:groupmode="layer"
     id="layer1">
    <g
       id="g5530"
       transform="matrix(1.0675169,0,0,1.0675169,129.69869,1297.1535)">
      <circle
         inkscape:export-ydpi="118"
         inkscape:export-xdpi="118"
         r="317.38074"
         cy="-715.08252"
         cx="227.77948"
         id="path4188"
         style="opacity:1;fill:#059889;fill-opacity:1;stroke:none;stroke-width:3.5;stroke-linecap:round;stroke-miterlimit:4;stroke-dasharray:none;stroke-opacity:1" />
      <g
         inkscape:export-ydpi="118"
         inkscape:export-xdpi="118"
         transform="matrix(2.1934522,0,0,2.1934522,-508.59373,-1503.6396)"
         id="g5220">
        <g
           style="fill:#f1c40f;fill-opacity:1"
           id="g6865"
           transform="matrix(0.85593012,0,0,0.85593012,511.23038,-97.881688)">
          <path
             sodipodi:nodetypes="cccccccccccccccccccc"
             style="color:#000000;display:inline;overflow:visible;visibility:visible;fill:#ff8e2a;fill-opacity:1;fill-rule:nonzero;stroke:none;stroke-width:2.59126377;marker:none;enable-background:accumulate"
             d="m -190.88509,549.55846 52.06891,51.75565 30.52019,-28.21031 -25.50547,-24.15111 -17.03141,16.57766 11.89183,11.39756 14.43039,-10.95934 1.2388,1.24669 -12.28329,12.79749 c -1.84296,1.8475 -3.85708,2.44832 -6.23129,0.42626 l -12.36732,-11.93974 c -1.48001,-1.85516 -1.80691,-3.67653 -0.58243,-5.45242 0,0 7.48483,-9.96501 17.76225,-18.95535 3.20411,-2.34714 5.98904,-1.76686 8.51775,0.60274 l 27.17969,23.66823 c 2.50926,2.87645 1.97316,6.47897 -0.64957,9.16365 l -31.25806,33.34621 c -2.95385,3.42313 -9.81213,3.20417 -12.78844,-0.10338 l -54.50543,-52.12566 z"
             id="path6867"
             inkscape:connector-curvature="0" />
          <path
             inkscape:connector-curvature="0"
             id="path6869"
             d="m -219.23273,519.18943 -52.06891,-51.75566 -30.52019,28.21032 25.50547,24.15111 17.03141,-16.57766 -11.89183,-11.39757 -14.43039,10.95934 -1.2388,-1.24669 12.28329,-12.79748 c 1.84296,-1.8475 3.85708,-2.44833 6.23129,-0.42627 l 12.36732,11.93975 c 1.48001,1.85515 1.80691,3.67652 0.58243,5.45241 0,0 -7.48483,9.96501 -17.76225,18.95535 -3.20411,2.34714 -5.98904,1.76686 -8.51775,-0.60274 l -27.17969,-23.66823 c -2.50926,-2.87645 -1.97316,-6.47896 0.64957,-9.16364 l 31.25806,-33.34622 c 2.95385,-3.42313 9.81213,-3.20417 12.78844,0.10339 l 54.50543,52.12565 z"
             style="color:#000000;display:inline;overflow:visible;visibility:visible;fill:#ff8e2a;fill-opacity:1;fill-rule:nonzero;stroke:none;stroke-width:2.59126377;marker:none;enable-background:accumulate"
             sodipodi:nodetypes="cccccccccccccccccccc" />
          <path
             inkscape:connector-curvature="0"
             id="path6871"
             d="m -189.8744,520.20012 51.75566,-52.06891 -28.21032,-30.52019 -24.15111,25.50547 16.57766,17.03141 11.39757,-11.89183 -10.95934,-14.43039 1.24669,-1.2388 12.79748,12.28329 c 1.8475,1.84296 2.44833,3.85708 0.42627,6.23129 l -11.93975,12.36732 c -1.85515,1.48001 -3.67652,1.80691 -5.45241,0.58243 0,0 -9.96501,-7.48483 -18.95535,-17.76225 -2.34714,-3.20411 -1.76686,-5.98904 0.60274,-8.51775 l 23.66823,-27.17969 c 2.87645,-2.50926 6.47896,-1.97316 9.16364,0.64957 l 33.34622,31.25806 c 3.42313,2.95385 3.20417,9.81213 -0.10339,12.78844 l -52.12565,54.50543 z"
             style="color:#000000;display:inline;overflow:visible;visibility:visible;fill:#ff8e2a;fill-opacity:1;fill-rule:nonzero;stroke:none;stroke-width:2.59126377;marker:none;enable-background:accumulate"
             sodipodi:nodetypes="cccccccccccccccccccc" />
          <path
             sodipodi:nodetypes="cccccccccccccccccccc"
             style="color:#000000;display:inline;overflow:visible;visibility:visible;fill:#ff8e2a;fill-opacity:1;fill-rule:nonzero;stroke:none;stroke-width:2.59126377;marker:none;enable-background:accumulate"
             d="m -220.24343,548.54776 -51.75566,52.06891 28.21032,30.52019 24.15111,-25.50547 -16.57766,-17.03141 -11.39757,11.89183 10.95934,14.43039 -1.24669,1.2388 -12.79748,-12.28329 c -1.8475,-1.84296 -2.44833,-3.85708 -0.42627,-6.23129 l 11.93975,-12.36732 c 1.85515,-1.48001 3.67652,-1.80691 5.45241,-0.58243 0,0 9.96501,7.48483 18.95535,17.76225 2.34714,3.20411 1.76686,5.98904 -0.60274,8.51775 l -23.66823,27.17969 c -2.87645,2.50926 -6.47896,1.97316 -9.16364,-0.64957 l -33.34622,-31.25806 c -3.42313,-2.95385 -3.20417,-9.81213 0.10339,-12.78844 l 52.12565,-54.50543 z"
             id="path6873"
             inkscape:connector-curvature="0" />
          <g
             style="fill:#f1c40f;fill-opacity:1"
             id="g6875"
             transform="matrix(1.0923337,0.25861982,-0.25861982,1.0923337,160.90403,65.72318)">
            <path
               style="color:#000000;display:inline;overflow:visible;visibility:visible;fill:#ff8e2a;fill-opacity:1;fill-rule:nonzero;stroke:none;stroke-width:2.59126377;marker:none;enable-background:accumulate"
               d="m -212.37363,517.74995 15.31813,45.99113 c 0,0 10.85389,-5.00739 11.41711,1.79622 0.56321,6.80362 -14.99811,6.05293 -14.99811,6.05293 l -14.63562,-53.47392 z"
               id="path6877"
               inkscape:connector-curvature="0"
               sodipodi:nodetypes="ccsccc" />
            <ellipse
               ry="7.0285716"
               rx="4.8000002"
               cy="505.67648"
               cx="-148.45714"
               style="color:#000000;display:inline;overflow:visible;visibility:visible;fill:#ff8e2a;fill-opacity:1;fill-rule:nonzero;stroke:none;stroke-width:2.59126377;marker:none;enable-background:accumulate"
               id="path6879"
               transform="matrix(0.20486933,-0.97878933,0.97878933,0.20486933,-662.31715,286.99496)" />
            <ellipse
               ry="7.0285716"
               rx="4.8000002"
               cy="505.67648"
               cx="-148.45714"
               transform="matrix(0.20486933,-0.97878933,0.97878933,0.20486933,-654.32827,298.52421)"
               id="path6881"
               style="color:#000000;display:inline;overflow:visible;visibility:visible;fill:#ff8e2a;fill-opacity:1;fill-rule:nonzero;stroke:none;stroke-width:2.59126377;marker:none;enable-background:accumulate" />
            <path
               sodipodi:nodetypes="ccsccc"
               inkscape:connector-curvature="0"
               id="path6883"
               d="m -229.74419,444.99793 -15.31813,-45.99112 c 0,0 -10.85389,5.00739 -11.41711,-1.79622 -0.56321,-6.80363 14.99811,-6.05293 14.99811,-6.05293 l 14.63562,53.47391 z"
               style="color:#000000;display:inline;overflow:visible;visibility:visible;fill:#ff8e2a;fill-opacity:1;fill-rule:nonzero;stroke:none;stroke-width:2.59126377;marker:none;enable-background:accumulate" />
            <ellipse
               ry="7.0285716"
               rx="4.8000002"
               cy="505.67648"
               cx="-148.45714"
               transform="matrix(-0.20486933,0.97878933,-0.97878933,-0.20486933,220.19933,675.75292)"
               id="path6885"
               style="color:#000000;display:inline;overflow:visible;visibility:visible;fill:#ff8e2a;fill-opacity:1;fill-rule:nonzero;stroke:none;stroke-width:2.59126377;marker:none;enable-background:accumulate" />
            <ellipse
               ry="7.0285716"
               rx="4.8000002"
               cy="505.67648"
               cx="-148.45714"
               style="color:#000000;display:inline;overflow:visible;visibility:visible;fill:#ff8e2a;fill-opacity:1;fill-rule:nonzero;stroke:none;stroke-width:2.59126377;marker:none;enable-background:accumulate"
               id="path6887"
               transform="matrix(-0.20486933,0.97878933,-0.97878933,-0.20486933,212.21045,664.22368)" />
            <path
               sodipodi:nodetypes="ccsccc"
               inkscape:connector-curvature="0"
               id="path6889"
               d="m -184.6829,472.68866 45.99112,-15.31813 c 0,0 -5.00739,-10.85389 1.79622,-11.41711 6.80363,-0.56321 6.05293,14.99811 6.05293,14.99811 l -53.47391,14.63562 z"
               style="color:#000000;display:inline;overflow:visible;visibility:visible;fill:#ff8e2a;fill-opacity:1;fill-rule:nonzero;stroke:none;stroke-width:2.59126377;marker:none;enable-background:accumulate" />
            <ellipse
               ry="7.0285716"
               rx="4.8000002"
               cy="505.67648"
               cx="-148.45714"
               transform="matrix(-0.97878933,-0.20486933,0.20486933,-0.97878933,-415.43789,922.63218)"
               id="path6891"
               style="color:#000000;display:inline;overflow:visible;visibility:visible;fill:#ff8e2a;fill-opacity:1;fill-rule:nonzero;stroke:none;stroke-width:2.59126377;marker:none;enable-background:accumulate" />
            <ellipse
               ry="7.0285716"
               rx="4.8000002"
               cy="505.67648"
               cx="-148.45714"
               style="color:#000000;display:inline;overflow:visible;visibility:visible;fill:#ff8e2a;fill-opacity:1;fill-rule:nonzero;stroke:none;stroke-width:2.59126377;marker:none;enable-background:accumulate"
               id="path6893"
               transform="matrix(-0.97878933,-0.20486933,0.20486933,-0.97878933,-403.90865,914.6433)" />
            <path
               style="color:#000000;display:inline;overflow:visible;visibility:visible;fill:#ff8e2a;fill-opacity:1;fill-rule:nonzero;stroke:none;stroke-width:2.59126377;marker:none;enable-background:accumulate"
               d="m -257.43493,490.05922 -45.99112,15.31813 c 0,0 5.00739,10.85389 -1.79622,11.41711 -6.80363,0.56321 -6.05293,-14.99811 -6.05293,-14.99811 l 53.47391,-14.63562 z"
               id="path6895"
               inkscape:connector-curvature="0"
               sodipodi:nodetypes="ccsccc" />
            <ellipse
               ry="7.0285716"
               rx="4.8000002"
               cy="505.67648"
               cx="-148.45714"
               style="color:#000000;display:inline;overflow:visible;visibility:visible;fill:#ff8e2a;fill-opacity:1;fill-rule:nonzero;stroke:none;stroke-width:2.59126377;marker:none;enable-background:accumulate"
               id="path6897"
               transform="matrix(0.97878933,0.20486933,-0.20486933,0.97878933,-26.67994,40.115699)" />
            <ellipse
               ry="7.0285716"
               rx="4.8000002"
               cy="505.67648"
               cx="-148.45714"
               transform="matrix(0.97878933,0.20486933,-0.20486933,0.97878933,-38.209184,48.104584)"
               id="path6899"
               style="color:#000000;display:inline;overflow:visible;visibility:visible;fill:#ff8e2a;fill-opacity:1;fill-rule:nonzero;stroke:none;stroke-width:2.59126377;marker:none;enable-background:accumulate" />
          </g>
        </g>
        <circle
           r="43.646198"
           cy="359.50504"
           cx="335.71423"
           style="color:#000000;display:inline;overflow:visible;visibility:visible;fill:#ff8e2a;fill-opacity:1;fill-rule:nonzero;stroke:#ff8e2a;stroke-width:5.62373877;stroke-opacity:1;marker:none;enable-background:accumulate"
           id="path6901" />
        <path
           inkscape:connector-curvature="0"
           id="path6903"
           d="m 313.60632,326.0267 c -0.63572,0.0261 -1.19629,0.18454 -1.62319,0.53503 -0.23637,2.28748 0.56994,5.2232 2.3166,6.82947 -0.15076,-0.19532 -0.33259,-0.5493 -0.58311,-1.13291 -0.775,-1.3182 -2.16967,-7.16442 0.52007,-4.34326 1.57684,3.31251 2.09027,7.35523 4.53865,10.29142 1.866,3.06408 5.41094,3.26194 8.3996,4.02846 2.595,1.2589 3.42976,4.98593 6.22492,5.72802 1.99005,2.58732 -0.50656,5.82595 -1.59168,8.32439 -2.17705,3.85626 2.28962,6.19726 3.70342,9.22129 2.86074,3.94878 5.57377,9.17777 3.4197,14.14683 -1.27293,3.59489 -1.58193,7.56642 -2.48996,11.31423 -0.4039,2.65857 -0.97723,8.24431 1.89112,8.76499 0.57506,-2.87508 0.34755,-5.96926 2.66334,-8.13554 2.27796,-4.33414 6.71579,-7.03758 10.08585,-10.10251 1.55428,-1.84688 4.56627,-6.03864 7.54868,-8.08846 1.32255,-2.23842 0.92688,-6.04227 3.35667,-8.2615 1.86145,-1.96888 2.78619,-6.53934 -0.78791,-7.08118 -4.76382,-1.89897 -8.68254,-5.50362 -11.85093,-9.58327 -3.43145,-1.84839 -5.58599,-2.35321 -9.24589,-3.53077 -0.22268,-0.0722 -0.52859,1.92228 -1.19571,1.91562 -0.91229,-0.008 0.21042,-2.5518 -1.7718,-2.47625 -0.332,1.09321 -2.22739,2.82196 -3.53005,3.1944 -0.50291,-0.82027 -2.28812,-2.5422 -2.15898,-3.93396 -0.0594,-2.80349 -3.64039,-2.87246 -2.26933,-5.53912 -0.81906,-2.34946 -4.10915,3.44935 -5.45271,-0.51941 -0.79425,-3.44766 -0.93251,-9.28906 -4.11311,-9.94506 -1.53291,-0.60702 -4.09712,-1.69873 -6.00426,-1.62095 z m 19.68462,9.69147 c 0.31497,0.0986 1.7217,-0.33026 3.27043,-0.30552 1.45953,0.0237 3.89502,1.2248 4.33651,0.84174 -0.68811,-2.28154 -5.54101,-1.86203 -5.44977,-1.85139 -0.73323,0.61691 -2.68189,1.11817 -2.15717,1.31517 z m 15.97714,4.33729 c -0.12114,0.21406 -0.73758,0.26756 -0.73822,-0.17128 0.24211,-0.42422 0.71364,-0.0603 0.73822,0.17128 z m -2.93152,-0.84618 c -2.75584,-0.085 -0.94409,-1.48878 -2.40736,-1.45697 -1.02566,0.0214 -0.73479,1.0989 -2.51294,0.93322 1.63465,0.76982 1.74478,0.58028 2.88364,1.18864 1.61618,-0.0956 2.60862,-0.0729 2.03666,-0.66489 z"
           style="font-size:12px;fill:#059889;fill-opacity:1;fill-rule:nonzero;stroke:#059889;stroke-width:0.89099783;stroke-opacity:1"
           sodipodi:nodetypes="cccccccccccccccccccssccccccccscccccccsccc" />
      </g>
      <g
         style="fill:#ffffff;stroke:#ffffff;stroke-width:0.93675327;stroke-opacity:1"
         transform="matrix(1.2631618,-0.33846318,0.33846054,1.2631519,-811.01282,685.3098)"
         id="g4602">
        <g
           style="font-style:normal;font-variant:normal;font-weight:normal;font-stretch:normal;font-size:43.75px;line-height:125%;font-family:ABeeZee;-inkscape-font-specification:'ABeeZee, Normal';text-align:start;letter-spacing:0px;word-spacing:0px;writing-mode:lr-tb;text-anchor:start;fill:#ffffff;fill-opacity:1;stroke:#ffffff;stroke-width:0.71632767px;stroke-linecap:butt;stroke-linejoin:miter;stroke-opacity:1"
           id="text4437">
          <path
             style="fill:#ffffff;stroke:#ffffff;stroke-width:0.71632767px;stroke-opacity:1"
             inkscape:connector-curvature="0"
             d="m 1256.6204,-804.05788 3.5575,0.46353 -1.922,14.75032 -3.5574,-0.46353 1.9219,-14.75032 z"
             id="path4498" />
          <path
             style="fill:#ffffff;stroke:#ffffff;stroke-width:0.71632767px;stroke-opacity:1"
             inkscape:connector-curvature="0"
             d="m 1265.6498,-759.35375 -5.6077,17.26855 -3.4121,-1.10803 4.324,-13.31551 -8.9047,-2.8917 -3.6079,11.11013 -3.2456,-1.05398 3.6078,-11.11013 -13.5651,-4.40511 1.2836,-3.95304 29.1277,9.45882 z"
             id="path4500" />
          <path
             style="fill:#ffffff;stroke:#ffffff;stroke-width:0.71632767px;stroke-opacity:1"
             inkscape:connector-curvature="0"
             d="m 1237.6531,-742.85845 q -3.0703,-0.96365 -5.4637,-0.0335 -2.3935,0.93013 -3.6432,3.67809 -0.815,1.79214 -1.1085,3.38885 -0.2537,1.61483 -0.254,3.20073 l -3.4469,-0.55819 q -0.025,-1.74159 0.3917,-3.71485 0.4167,-1.97325 1.4309,-4.20347 1.0142,-2.23023 2.546,-3.69638 1.5717,-1.44805 3.5053,-2.1067 1.9553,-0.60072 4.2545,-0.37222 2.339,0.24661 4.9276,1.4238 2.3099,1.05042 3.9933,2.63298 1.6834,1.58256 2.5557,3.46914 0.9121,1.90468 0.9298,3.97939 0.058,2.09281 -0.9023,4.20356 -1.0141,2.23023 -2.5315,3.5588 -1.5173,1.32857 -3.3386,1.84603 -1.8214,0.51746 -3.8273,0.27815 -2.0058,-0.23931 -3.9573,-1.12673 -1.3939,-0.63388 -2.6538,-1.351 l 6.5923,-14.49647 z m 6.6461,9.79894 q 1.0685,-2.3497 0.1637,-4.58749 -0.9229,-2.19797 -3.8844,-3.9292 l -5.1616,11.35026 q 3.0268,1.3764 5.3478,0.60557 2.3211,-0.77083 3.5345,-3.43914 z"
             id="path4502" />
          <path
             style="fill:#ffffff;stroke:#ffffff;stroke-width:0.71632767px;stroke-opacity:1"
             inkscape:connector-curvature="0"
             d="m 1224.0529,-725.31074 q -1.4468,0.46196 -2.8465,1.61406 -1.422,1.18969 -2.43,2.88086 -1.2543,2.10457 -1.205,3.56002 0.064,1.51544 1.1544,2.16499 0.5637,0.33598 1.1867,0.40167 0.6005,0.10327 1.3875,-0.19167 0.7645,-0.25737 1.7379,-0.95052 1.0109,-0.67076 2.433,-1.86045 2.597,-2.22107 4.6811,-2.81247 2.1217,-0.56899 4.4142,0.79731 1.1275,0.67195 1.8134,1.74287 0.6636,1.1085 0.8176,2.47361 0.1693,1.42509 -0.2236,3.02441 -0.4154,1.6369 -1.4681,3.40323 -1.1423,1.91666 -2.4068,3.09838 -1.2494,1.2417 -2.5451,2.04835 l -2.221,-2.59702 q 1.206,-0.65632 2.3658,-1.7477 1.1374,-1.05379 2.0781,-2.63221 1.1647,-1.95424 0.9802,-3.43931 -0.1844,-1.48507 -1.124,-2.04503 -0.4509,-0.26878 -0.9163,-0.34244 -0.4878,-0.0361 -1.0949,0.21332 -0.607,0.24939 -1.3932,0.79944 -0.7862,0.55004 -1.834,1.45351 -1.7364,1.46072 -3.1744,2.33532 -1.4004,0.89701 -2.66,1.21585 -1.2596,0.31885 -2.4007,0.0971 -1.1035,-0.19932 -2.231,-0.87127 -1.3153,-0.78395 -2.0316,-1.97483 -0.7163,-1.19088 -0.8632,-2.65355 -0.1093,-1.44027 0.3884,-3.12993 0.4377,-1.67448 1.4905,-3.44082 1.3439,-2.25489 2.9603,-3.68525 1.6165,-1.43036 3.2128,-2.05783 l 1.9675,3.10798 z"
             id="path4504" />
          <path
             style="fill:#ffffff;stroke:#ffffff;stroke-width:0.71632767px;stroke-opacity:1"
             inkscape:connector-curvature="0"
             d="m 1231.0785,-691.63937 -1.7822,2.43652 -5.7911,-4.23591 -3.7194,5.08492 -2.7543,-2.01464 3.7193,-5.08493 -8.8633,-6.48302 q -1.024,-0.74903 -1.8852,-1.05374 -0.8871,-0.26939 -1.595,-0.1909 -0.7078,0.0785 -1.3071,0.45319 -0.5898,0.43585 -1.0289,1.03615 -0.6457,0.8828 -0.9315,1.8663 -0.2857,0.98349 -0.4139,1.97385 l -3.1881,-0.97687 q 0.093,-1.01619 0.5825,-2.50091 0.4545,-1.51055 1.4101,-2.8171 1.9372,-2.6484 4.8039,-2.93652 2.841,-0.2528 6.125,2.14927 l 8.6161,6.30222 2.3246,-3.17808 2.7543,2.01465 -2.3762,3.2487 5.3004,4.90685 z"
             id="path4506" />
          <path
             style="fill:#ffffff;stroke:#ffffff;stroke-width:0.71632767px;stroke-opacity:1"
             inkscape:connector-curvature="0"
             d="m 1195.5881,-693.4717 2.5414,-3.00753 17.3769,14.68359 -2.5414,3.00753 -17.3769,-14.68359 z m 21.6217,15.69298 q 0.7342,-0.86884 1.8722,-0.99549 1.1432,-0.065 2.012,0.66919 0.9691,0.81889 1.0572,1.86702 0.088,1.04813 -0.7309,2.01722 -0.7341,0.86885 -1.8773,0.93384 -1.1381,0.12664 -2.0069,-0.60754 -0.9691,-0.81889 -1.0571,-1.86702 -0.088,-1.04813 0.7308,-2.01722 z"
             id="path4508" />
          <path
             style="fill:#ffffff;stroke:#ffffff;stroke-width:0.71632767px;stroke-opacity:1"
             inkscape:connector-curvature="0"
             d="m 1208.5512,-674.99425 -1.4807,3.5903 -18.7253,-7.74304 7.7867,18.70714 -3.4323,1.33426 -8.8732,-21.83041 2.9046,-2.91137 21.8202,8.85312 z"
             id="path4510" />
          <path
             style="fill:#ffffff;stroke:#ffffff;stroke-width:0.71632767px;stroke-opacity:1"
             inkscape:connector-curvature="0"
             d="m 1183.0751,-664.52868 q 1.564,1.99815 2.2922,4.20609 0.7552,2.2424 0.6505,4.38002 -0.1391,2.16458 -1.1231,4.10154 -1.0184,1.96393 -2.8788,3.42013 -1.5503,1.21349 -3.222,1.63307 -1.6791,0.481 -3.2295,0.41673 l 1.1326,1.44694 -2.825,2.21126 -10.6248,-13.57367 q -1.0248,-1.30914 -1.9685,-1.23715 -0.9512,0.13341 -1.7091,0.72667 l -1.2331,-2.92393 q 3.3073,-2.58879 6.0997,-0.44095 -0.018,-0.87481 0.1017,-1.85749 0.1123,-0.92126 0.4777,-1.87401 0.3654,-0.95274 1.0379,-1.86806 0.6725,-0.91532 1.706,-1.72432 1.6881,-1.32136 3.6819,-1.82635 1.9593,-0.47803 4.0056,-0.13518 2.0118,0.36982 3.9877,1.54555 1.9684,1.23715 3.6404,3.37311 z m -13.8473,0.33828 q -1.3091,1.02473 -1.995,2.56171 -0.686,1.53698 -0.6963,3.15629 l 7.5237,9.61181 q 1.4425,-0.0735 2.876,-0.58447 1.4261,-0.44952 2.6663,-1.42032 1.2402,-0.97079 1.8962,-2.2621 0.656,-1.29131 0.7128,-2.7803 0.049,-1.42757 -0.5081,-2.9914 -0.5574,-1.56384 -1.7169,-3.04523 -1.1326,-1.44694 -2.5168,-2.36357 -1.3573,-0.88218 -2.8163,-1.18464 -1.4321,-0.26801 -2.8087,0.0317 -1.4111,0.32669 -2.6169,1.27052 z"
             id="path4512" />
          <path
             style="fill:#ffffff;stroke:#ffffff;stroke-width:0.71632767px;stroke-opacity:1"
             inkscape:connector-curvature="0"
             d="m 1154.116,-647.98551 q -1.2541,-2.00214 -2.6737,-2.4552 -1.4566,-0.42982 -2.9396,0.49916 -0.7045,0.44127 -1.279,1.00762 -0.5512,0.60343 -0.9309,1.15103 l -2.5111,-2.19565 q 0.4815,-0.71466 1.3433,-1.56419 0.8246,-0.8263 2.0111,-1.56948 1.2977,-0.81287 2.6422,-1.13884 1.3075,-0.30274 2.6109,-0.0351 1.3034,0.26767 2.5518,1.18928 1.2113,0.94484 2.3029,2.68744 l 13.4006,21.39324 -3.3369,2.09022 -13.1916,-21.05955 z"
             id="path4514" />
          <path
             style="fill:#ffffff;stroke:#ffffff;stroke-width:0.71632767px;stroke-opacity:1"
             inkscape:connector-curvature="0"
             d="m 1111.4737,-635.19182 16.7612,-7.09242 11.9343,28.20392 -3.8276,1.61966 -10.4852,-24.77916 -12.9335,5.47277 -1.4492,-3.42477 z"
             id="path4516" />
          <path
             style="fill:#ffffff;stroke:#ffffff;stroke-width:0.71632767px;stroke-opacity:1"
             inkscape:connector-curvature="0"
             d="m 1112.4367,-623.59462 q 0.6928,2.44111 0.5324,4.7605 -0.1485,2.36148 -1.0534,4.30095 -0.9469,1.9514 -2.5901,3.37273 -1.6852,1.43327 -3.958,2.07824 -1.8939,0.53747 -3.6002,0.29405 -1.7364,-0.1894 -3.1475,-0.83494 l 0.5016,1.7677 -3.4512,0.9794 -4.7059,-16.5827 q -0.4538,-1.59935 -1.3548,-1.88942 -0.931,-0.23603 -1.857,0.0267 l -0.036,-3.1731 q 4.0405,-1.14662 5.8139,1.89737 0.3139,-0.81673 0.7962,-1.68124 0.4522,-0.81048 1.1506,-1.55442 0.6985,-0.74393 1.6671,-1.33715 0.9686,-0.59321 2.2312,-0.95153 2.0623,-0.58525 4.099,-0.29916 1.9947,0.29803 3.7595,1.3889 1.7228,1.10282 3.1077,2.93821 1.3548,1.88941 2.0953,4.49887 z m -12.9477,-4.92089 q -1.5994,0.45386 -2.8154,1.61754 -1.216,1.16368 -1.8376,2.65894 l 3.3323,11.74257 q 1.3633,0.47719 2.8836,0.54601 1.4901,0.12285 3.0053,-0.30713 1.5152,-0.42998 2.6106,-1.37753 1.0954,-0.94755 1.7108,-2.3046 0.5853,-1.30303 0.6604,-2.96152 0.075,-1.6585 -0.4385,-3.46829 -0.5017,-1.7677 -1.4367,-3.13954 -0.9231,-1.32976 -2.1596,-2.16128 -1.2245,-0.78944 -2.6123,-1.0323 -1.4299,-0.23091 -2.9029,0.18713 z"
             id="path4518" />
          <path
             style="fill:#ffffff;stroke:#ffffff;stroke-width:0.71632767px;stroke-opacity:1"
             inkscape:connector-curvature="0"
             d="m 1084.7758,-598.26643 -2.9775,0.49736 -1.1822,-7.07694 -6.2139,1.03798 -0.5622,-3.36587 6.2139,-1.03798 -1.8093,-10.83118 q -0.209,-1.25141 -0.6121,-2.0712 -0.4462,-0.81259 -1.0074,-1.25112 -0.5611,-0.43854 -1.2517,-0.58933 -0.7264,-0.10043 -1.46,0.0221 -1.0788,0.18021 -1.9705,0.68401 -0.8917,0.50379 -1.6754,1.12263 l -1.5978,-2.92675 q 0.7765,-0.66199 2.1644,-1.38174 1.3807,-0.7629 2.9773,-1.02961 3.2364,-0.54061 5.4883,1.25668 2.2087,1.8045 2.8791,5.81765 l 1.7588,10.52911 3.8837,-0.64873 0.5622,3.36586 -3.97,0.66315 0.3623,7.21391 z"
             id="path4520" />
          <path
             style="fill:#ffffff;stroke:#ffffff;stroke-width:0.71632767px;stroke-opacity:1"
             inkscape:connector-curvature="0"
             d="m 1060.6701,-624.38206 3.9197,-0.37413 2.1616,22.64707 -3.9197,0.37413 -2.1616,-22.64707 z m 4.4914,26.33614 q 1.1324,-0.10808 2.0347,0.59687 0.8629,0.75267 0.971,1.88502 0.1206,1.26301 -0.5492,2.07407 -0.6697,0.81105 -1.9327,0.9316 -1.1323,0.10808 -1.9953,-0.64458 -0.9023,-0.70496 -1.0103,-1.83731 -0.1206,-1.26301 0.5491,-2.07407 0.6697,-0.81105 1.9327,-0.9316 z"
             id="path4522" />
          <path
             style="fill:#ffffff;stroke:#ffffff;stroke-width:0.71632767px;stroke-opacity:1"
             inkscape:connector-curvature="0"
             d="m 1049.9715,-604.73626 q -1.2165,1.84314 -3.092,3.07682 -1.9192,1.27763 -4.5441,1.28975 -3.85,0.0178 -5.7419,-2.29225 -1.9357,-2.30983 -1.9533,-6.11604 l -0.069,-14.83109 3.9374,-0.0182 0.066,14.3936 q 0.012,2.49372 1.1557,3.9322 1.1444,1.48223 3.2443,1.47253 1.0063,-0.005 1.967,-0.40284 0.9608,-0.35445 1.8765,-1.01493 0.872,-0.66029 1.6554,-1.53892 0.7397,-0.87842 1.3478,-1.84374 l -0.07,-15.04984 3.9374,-0.0182 0.1051,22.74975 -3.8062,0.0176 -0.018,-3.80621 z"
             id="path4524" />
          <path
             style="fill:#ffffff;stroke:#ffffff;stroke-width:0.71632767px;stroke-opacity:1"
             inkscape:connector-curvature="0"
             d="m 1009.628,-614.80678 q -0.2104,1.69323 0.1653,3.28292 0.3322,1.5843 1.1905,2.83719 0.8149,1.24749 2.0799,2.06595 1.2162,0.85649 2.7791,1.05068 3.4299,0.42614 5.6207,-1.59416 2.1908,-2.0203 2.6547,-5.75409 0.2104,-1.69323 -0.1164,-3.32094 -0.3756,-1.5897 -1.1851,-2.8806 -0.8583,-1.25289 -2.0745,-2.10938 -1.265,-0.81846 -2.828,-1.01265 -1.6932,-0.21037 -3.1146,0.23023 -1.4215,0.44061 -2.4681,1.41274 -1.0954,1.01015 -1.7617,2.47038 -0.7098,1.45483 -0.9418,3.32173 z m 18.4953,2.29792 q -0.3398,2.73522 -1.4779,4.79815 -1.1434,2.10634 -2.8083,3.4425 -1.7084,1.33077 -3.8514,1.90216 -2.1865,0.56598 -4.5744,0.2693 -2.3445,-0.29128 -4.2825,-1.36972 -1.9815,-1.08383 -3.3123,-2.79219 -1.3308,-1.70836 -1.9294,-3.98706 -0.5986,-2.27869 -0.2642,-4.97049 0.3345,-2.69181 1.4779,-4.79815 1.0946,-2.06832 2.8084,-3.4425 1.7137,-1.37419 3.9056,-1.98359 2.1431,-0.57138 4.5309,-0.2747 2.4313,0.30207 4.4074,1.42931 1.9327,1.12186 3.2581,2.87363 1.282,1.74639 1.8806,4.02508 0.5552,2.2733 0.2315,4.87827 z"
             id="path4526" />
          <path
             style="fill:#ffffff;stroke:#ffffff;stroke-width:0.71632767px;stroke-opacity:1"
             inkscape:connector-curvature="0"
             d="m 996.44679,-615.45019 -0.90295,3.47201 -14.39613,-3.74392 0.90294,-3.47201 14.39614,3.74392 z"
             id="path4528" />
          <path
             style="fill:#ffffff;stroke:#ffffff;stroke-width:0.71632767px;stroke-opacity:1"
             inkscape:connector-curvature="0"
             d="m 973.76799,-623.73293 q -0.9597,2.34902 -2.51603,4.0762 -1.57288,1.76768 -3.48111,2.7367 -1.94873,0.95248 -4.11873,1.05839 -2.21049,0.0894 -4.3975,-0.80414 -1.82252,-0.7446 -3.01578,-1.98828 -1.25032,-1.21972 -1.96326,-2.59799 l -0.69495,1.70102 -3.32103,-1.35682 6.51933,-15.95712 q 0.62877,-1.53901 0.0983,-2.32285 -0.58749,-0.75989 -1.4785,-1.12391 l 1.92777,-2.52064 q 3.88803,1.58846 3.4074,5.07842 0.75075,-0.44945 1.6635,-0.83271 0.8557,-0.35931 1.86427,-0.51438 1.00856,-0.15507 2.1369,-0.0249 1.12833,0.13016 2.34334,0.62655 1.98451,0.81078 3.41164,2.29179 1.38663,1.46446 2.10351,3.41146 0.67638,1.93045 0.63511,4.22935 -0.0983,2.32286 -1.1242,4.83387 z m -7.15979,-11.85737 q -1.53901,-0.62877 -3.21386,-0.46234 -1.67485,0.16642 -3.0862,0.96036 l -4.61648,11.29958 q 0.77912,1.21627 1.93362,2.20781 1.09745,1.01549 2.55546,1.61116 1.45801,0.59568 2.90467,0.52507 1.44666,-0.0706 2.76788,-0.75959 1.26417,-0.66504 2.34585,-1.92449 1.08168,-1.25945 1.79318,-3.00096 0.69495,-1.70102 0.80462,-3.35759 0.0931,-1.61607 -0.36767,-3.0331 -0.47734,-1.37653 -1.4202,-2.42338 -0.98336,-1.0634 -2.40087,-1.64253 z"
             id="path4530" />
          <path
             style="fill:#ffffff;stroke:#ffffff;stroke-width:0.71632767px;stroke-opacity:1"
             inkscape:connector-curvature="0"
             d="m 938.34057,-630.91642 q -2.00943,0.91608 -4.21663,0.98884 -2.26744,0.0869 -4.34963,-1.20424 -2.30528,-1.42945 -3.0637,-3.44408 -0.78148,-1.97745 -0.23774,-4.26568 -2.2132,0.99564 -4.51262,1.21713 -2.33661,0.19842 -4.67907,-1.25409 -1.56164,-0.96834 -2.3915,-2.20361 -0.86704,-1.25833 -1.04842,-2.70923 -0.20443,-1.41372 0.25376,-2.98283 0.39795,-1.55498 1.38934,-3.1538 l 7.81589,-12.60468 3.34638,2.07501 -7.6545,12.34441 q -1.24501,2.00782 -1.0763,3.81122 0.14566,1.84058 1.78166,2.85503 0.85519,0.53028 1.84351,0.67981 0.98832,0.14954 2.06367,-0.007 1.05229,-0.11967 2.16855,-0.50854 1.09321,-0.35169 2.12098,-0.84692 l 7.862,-12.67904 3.34638,2.07502 -7.6545,12.3444 q -1.24501,2.00783 -1.0763,3.81122 0.14566,1.84058 1.78166,2.85503 0.818,0.50723 1.80633,0.65676 0.96526,0.18672 2.05474,0.0901 1.05229,-0.11967 2.1455,-0.47136 1.0932,-0.35169 2.12098,-0.84692 l 7.93116,-12.79058 3.34638,2.07501 -11.98897,19.33461 -3.23483,-2.00585 2.00584,-3.23483 z"
             id="path4532" />
          <path
             style="fill:#ffffff;stroke:#ffffff;stroke-width:0.71632767px;stroke-opacity:1"
             inkscape:connector-curvature="0"
             d="m 909.95656,-661.34249 q 1.79232,-2.67258 1.57678,-5.23138 -0.21554,-2.55881 -2.49812,-4.53433 -1.48864,-1.28838 -2.93723,-2.02136 -1.47722,-0.69989 -2.99835,-1.14849 l 1.50986,-3.14848 q 1.67764,0.46833 3.45259,1.42591 1.77494,0.95757 3.62747,2.56089 1.85253,1.60332 2.82582,3.48716 0.94466,1.91691 1.0298,3.95785 0.0234,2.04538 -0.84573,4.18615 -0.89779,2.17384 -2.75878,4.3241 -1.66058,1.91869 -3.65449,3.08602 -1.99391,1.16732 -4.05013,1.47068 -2.08484,0.33644 -4.07993,-0.23306 -2.02372,-0.53642 -3.77701,-2.05385 -1.85253,-1.60332 -2.69795,-3.43435 -0.84541,-1.83102 -0.82686,-3.72435 0.0186,-1.89333 0.81516,-3.74972 0.79662,-1.85639 2.19953,-3.47735 1.00207,-1.15783 2.04613,-2.16361 l 12.04144,10.42157 z m -11.2781,3.60476 q 1.95178,1.68921 4.35408,1.45394 2.36922,-0.2639 4.86706,-2.61516 l -9.42805,-8.15975 q -2.17594,2.51415 -2.09272,4.95843 0.0832,2.44428 2.29963,4.36254 z"
             id="path4534" />
          <path
             style="fill:#ffffff;stroke:#ffffff;stroke-width:0.71632767px;stroke-opacity:1"
             inkscape:connector-curvature="0"
             d="m 878.29807,-679.07365 q 0.31501,0.84513 1.09478,1.6733 0.83975,0.89187 2.03174,1.392 1.162,0.46828 2.55628,0.4174 1.36429,-0.0827 2.96458,-0.80831 1.53844,-0.72743 3.16293,-2.25698 l 7.74022,-7.28784 2.69919,2.86675 -16.56341,15.59537 -2.60923,-2.77119 3.59936,-3.38899 q -1.03439,0.43311 -2.21687,0.64512 -1.18248,0.212 -2.32379,0.0848 -1.17131,-0.15905 -2.2996,-0.71917 -1.16014,-0.53012 -2.14985,-1.58126 -0.44986,-0.47779 -0.80603,-0.98371 -0.41802,-0.50778 -0.65236,-0.94813 l 3.77206,-1.92915 z"
             id="path4536" />
          <path
             style="fill:#ffffff;stroke:#ffffff;stroke-width:0.71632767px;stroke-opacity:1"
             inkscape:connector-curvature="0"
             d="m 886.37305,-699.05912 2.4915,3.04898 -17.61636,14.39536 -2.4915,-3.04899 17.61636,-14.39535 z m -19.38572,18.38366 q 0.71977,0.88082 0.63595,2.0228 -0.14537,1.13578 -1.02619,1.85555 -0.98245,0.80282 -2.02899,0.69751 -1.04653,-0.1053 -1.84935,-1.08775 -0.71977,-0.88082 -0.57439,-2.0166 0.0838,-1.14198 0.96463,-1.86174 0.98245,-0.80282 2.02898,-0.69752 1.04654,0.1053 1.84936,1.08775 z"
             id="path4538" />
          <path
             style="fill:#ffffff;stroke:#ffffff;stroke-width:0.71632767px;stroke-opacity:1"
             inkscape:connector-curvature="0"
             d="m 858.45258,-705.84558 q 0.22173,1.3913 0.63084,2.43907 0.37319,1.07276 1.14769,2.18611 0.87444,1.25702 2.11583,2.04558 1.21641,0.75266 2.66392,0.91818 1.4116,0.19051 2.99341,-0.21703 1.55682,-0.44346 3.17298,-1.56774 1.47251,-1.02434 2.4547,-2.29384 0.95721,-1.30541 1.40224,-2.73418 0.40912,-1.40379 0.22331,-2.82008 -0.18581,-1.41628 -1.08523,-2.70921 -0.94939,-1.36476 -1.91127,-2.13459 -0.96188,-0.76983 -2.34693,-1.45846 l 2.02997,-2.90439 q 1.41003,0.72455 2.71857,1.83947 1.30853,1.11492 2.53274,2.87474 1.3991,2.01123 1.80508,4.12707 0.40598,2.11584 -0.0875,4.16453 -0.49345,2.04869 -1.83948,3.94435 -1.37101,1.85975 -3.52589,3.35878 -2.01122,1.3991 -4.19577,2.01276 -2.24545,0.60273 -4.39876,0.34195 -2.15331,-0.26079 -4.05678,-1.3882 -1.96437,-1.13835 -3.41344,-3.2214 -1.12427,-1.61616 -1.66142,-3.00122 -0.53715,-1.38506 -0.77293,-2.87317 l 3.40408,-0.92908 z"
             id="path4540" />
          <path
             style="fill:#ffffff;stroke:#ffffff;stroke-width:0.71632767px;stroke-opacity:1"
             inkscape:connector-curvature="0"
             d="m 861.41341,-714.65351 q -2.23867,1.19468 -4.53932,1.52982 -2.33925,0.35573 -4.4265,-0.11728 -2.10785,-0.5116 -3.84531,-1.81595 -1.75806,-1.34294 -2.87034,-3.42722 -0.92691,-1.7369 -1.05087,-3.45599 -0.18315,-1.73709 0.14845,-3.25298 l -1.6211,0.86511 -1.68903,-3.16501 15.20753,-8.11558 q 1.46671,-0.78272 1.55912,-1.72465 0.0332,-0.95993 -0.41993,-1.80909 l 3.0932,-0.70849 q 1.9774,3.70539 -0.62127,6.08398 0.86474,0.13361 1.81187,0.4216 0.88794,0.27 1.76307,0.79478 0.87513,0.52478 1.66026,1.34554 0.78513,0.82076 1.40307,1.9787 1.0093,1.89129 1.16165,3.94235 0.13175,2.01247 -0.56004,3.96853 -0.71239,1.91745 -2.21232,3.66011 -1.55913,1.72465 -3.95219,3.00172 z m 2.06312,-13.69684 q -0.78272,-1.46671 -2.17781,-2.40828 -1.39509,-0.94156 -2.98818,-1.23197 l -10.76878,5.74681 q -0.17721,1.4335 0.0779,2.93381 0.19596,1.4823 0.93748,2.87182 0.74153,1.38952 1.89983,2.25909 1.15831,0.86956 2.61501,1.18316 1.3975,0.29561 3.03419,0.0173 1.6367,-0.27835 3.2964,-1.16406 1.62111,-0.86511 2.76345,-2.06981 1.10375,-1.1841 1.65414,-2.5688 0.51179,-1.36409 0.45482,-2.7718 -0.0776,-1.44631 -0.79849,-2.79723 z"
             id="path4542" />
          <path
             style="fill:#ffffff;stroke:#ffffff;stroke-width:0.71632767px;stroke-opacity:1"
             inkscape:connector-curvature="0"
             d="m 839.26011,-742.28826 q -2.15021,-0.50363 -3.95664,-1.83649 -1.86274,-1.35851 -2.78237,-3.81715 -1.34879,-3.606 0.16394,-6.18037 1.4974,-2.61534 5.06242,-3.94881 l 13.89131,-5.19591 1.37945,3.68795 -13.48154,5.04265 q -2.3357,0.87365 -3.28945,2.44485 -0.99472,1.58654 -0.25901,3.55345 0.35252,0.94248 1.05852,1.70603 0.66501,0.77889 1.60154,1.4095 0.92121,0.58964 2.01664,1.02069 1.08011,0.39007 2.19619,0.62655 l 14.0962,-5.27255 1.37944,3.68796 -21.3082,7.97014 -1.33346,-3.56503 3.56502,-1.33346 z"
             id="path4544" />
          <path
             style="fill:#ffffff;stroke:#ffffff;stroke-width:0.71632767px;stroke-opacity:1"
             inkscape:connector-curvature="0"
             d="m 834.79394,-783.66165 q -1.66229,0.38483 -3.02581,1.28428 -1.37339,0.85683 -2.25463,2.09371 -0.8911,1.19425 -1.22455,2.66357 -0.38595,1.43656 -0.0307,2.97098 0.77953,3.36719 3.43008,4.72949 2.65054,1.36229 6.3161,0.51369 1.66228,-0.38483 3.07829,-1.25153 1.36352,-0.89945 2.29725,-2.10357 0.88124,-1.23688 1.26718,-2.67344 0.33345,-1.46931 -0.0218,-3.00373 -0.38483,-1.66229 -1.28744,-2.84545 -0.90261,-1.18316 -2.17539,-1.83155 -1.32528,-0.68115 -2.92561,-0.80464 -1.61021,-0.16611 -3.44298,0.25819 z m 4.20352,18.15728 q -2.68524,0.62165 -5.01372,0.26256 -2.37111,-0.34921 -4.1984,-1.45303 -1.83715,-1.14643 -3.11075,-2.96222 -1.28347,-1.85841 -1.82618,-4.20266 -0.53284,-2.30163 -0.18677,-4.49238 0.33619,-2.23337 1.48263,-4.07052 1.14643,-1.83716 3.08022,-3.18298 1.93379,-1.34583 4.5764,-1.95761 2.64261,-0.61178 5.01371,-0.26256 2.31862,0.31646 4.1984,1.45303 1.87978,1.13657 3.20587,2.98511 1.2736,1.81579 1.81631,4.16004 0.55257,2.38687 0.17375,4.63011 -0.38868,2.20061 -1.57774,4.04764 -1.19893,1.8044 -3.13272,3.15022 -1.94365,1.3032 -4.50101,1.89525 z"
             id="path4546" />
          <path
             style="fill:#ffffff;stroke:#ffffff;stroke-width:0.71632767px;stroke-opacity:1"
             inkscape:connector-curvature="0"
             d="m 843.01326,-817.07974 q 0.0665,2.09895 -0.70479,4.00558 -0.77266,1.86289 -2.25882,3.31067 -1.48754,1.40404 -3.60529,2.25902 -2.16147,0.85636 -4.87261,0.94223 -2.57996,0.0817 -4.79129,-0.63613 -2.25645,-0.76019 -3.8736,-2.0659 -1.66226,-1.34805 -2.63872,-3.15554 -0.97646,-1.80749 -1.04156,-3.86271 -0.072,-2.27386 0.79501,-3.92089 0.86566,-1.69075 1.79859,-2.63951 l -11.89403,0.37674 -0.12466,-3.93553 26.84903,-0.85044 q 1.66167,-0.0526 2.16148,-0.85636 0.45469,-0.84607 0.42422,-1.80808 l 3.08728,0.73387 q 0.13158,4.15417 -3.16267,5.17773 1.43116,0.96142 2.62211,2.6308 1.14722,1.67077 1.23032,4.29445 z m -3.52595,-0.76375 q -0.0512,-1.61794 -0.84033,-3.03742 -0.8342,-1.46182 -2.09044,-2.42879 l -11.28184,0.35736 q -1.02316,0.86407 -1.85063,2.37853 -0.87258,1.47211 -0.81441,3.30869 0.0499,1.57421 0.74734,2.86528 0.69609,1.24733 1.86211,2.12961 1.16601,0.88228 2.75546,1.31342 1.54572,0.43253 3.33857,0.37575 1.83658,-0.0582 3.35044,-0.63139 1.51386,-0.57322 2.6217,-1.52752 1.06273,-0.99664 1.67849,-2.28553 0.57064,-1.33124 0.52354,-2.81799 z"
             id="path4548" />
          <path
             style="fill:#ffffff;stroke:#ffffff;stroke-width:0.71632767px;stroke-opacity:1"
             inkscape:connector-curvature="0"
             d="m 832.94708,-838.23385 q 3.21639,-0.0993 5.17104,-1.76464 1.95464,-1.66533 2.23137,-4.67137 0.18048,-1.96046 -0.0672,-3.56493 -0.29128,-1.60847 -0.81242,-3.1063 l 3.43879,-0.60607 q 0.59624,1.63655 0.85142,3.63712 0.25518,2.00057 0.0306,4.44025 -0.2246,2.43968 -1.18926,4.32795 -1.00823,1.88426 -2.6178,3.14201 -1.64913,1.21016 -3.8956,1.75025 -2.29004,0.53608 -5.12181,0.27539 -2.52682,-0.23261 -4.63693,-1.17376 -2.11011,-0.94115 -3.55415,-2.43607 -1.4876,-1.49893 -2.18646,-3.45247 -0.74243,-1.95756 -0.52987,-4.26654 0.2246,-2.43969 1.22079,-4.19325 0.9962,-1.75356 2.54617,-2.84105 1.54996,-1.08749 3.52301,-1.52095 1.97304,-0.43345 4.10776,-0.23693 1.52481,0.14037 2.95045,0.40342 l -1.45986,15.85794 z m -9.49821,-7.06922 q -0.23662,2.57038 1.35361,4.3863 1.59424,1.77236 4.96028,2.43371 l 1.14302,-12.41625 q -3.31099,-0.3048 -5.24959,1.18626 -1.93861,1.49107 -2.20732,4.40998 z"
             id="path4550" />
          <path
             style="fill:#ffffff;stroke:#ffffff;stroke-width:0.71632767px;stroke-opacity:1"
             inkscape:connector-curvature="0"
             d="m 847.92652,-871.84629 -29.69624,-7.48491 1.01581,-4.03021 29.69624,7.48492 -1.01581,4.0302 z"
             id="path4552" />
          <path
             style="fill:#ffffff;stroke:#ffffff;stroke-width:0.71632767px;stroke-opacity:1"
             inkscape:connector-curvature="0"
             d="m 834.20222,-893.05715 q -1.3202,-1.77034 -1.84327,-3.95349 -0.54962,-2.23903 0.33081,-4.71198 1.29129,-3.62699 4.1067,-4.62157 2.83008,-1.03578 6.41586,0.24084 l 13.97216,4.9744 -1.32064,3.70942 -13.56,-4.82766 q -2.3493,-0.83641 -4.09094,-0.24903 -1.78286,0.5727 -2.4872,2.55106 -0.33749,0.94796 -0.28937,1.98678 0.007,1.02413 0.31699,2.10977 0.32476,1.04443 0.88495,2.07979 0.57486,0.99414 1.27618,1.89398 l 14.17823,5.04778 -1.32063,3.70942 -21.43223,-7.63036 1.27662,-3.58577 3.58578,1.27662 z"
             id="path4554" />
          <path
             style="fill:#ffffff;stroke:#ffffff;stroke-width:0.71632767px;stroke-opacity:1"
             inkscape:connector-curvature="0"
             d="m 855.25896,-909.30293 q 1.40559,-0.57511 2.70962,-1.83446 1.32337,-1.29859 2.19417,-3.06429 1.08366,-2.19731 0.91922,-3.64428 -0.18434,-1.50557 -1.32223,-2.06675 -0.58856,-0.29027 -1.21476,-0.30641 -0.60685,-0.0554 -1.36797,0.30098 -0.74176,0.31711 -1.65716,1.08519 -0.95463,0.74873 -2.278,2.04732 -2.41293,2.41981 -4.44365,3.17443 -2.06996,0.73527 -4.46346,-0.44515 -1.17713,-0.58054 -1.94574,-1.59376 -0.74927,-1.05245 -1.01101,-2.40107 -0.28162,-1.4072 -0.0166,-3.03262 0.28437,-1.66466 1.19388,-3.50883 0.98691,-2.00112 2.15386,-3.27929 1.14707,-1.33676 2.37476,-2.24351 l 2.41981,2.41293 q -1.15028,0.7498 -2.21995,1.92961 -1.05031,1.14057 -1.86306,2.78855 -1.00626,2.04036 -0.70475,3.50615 0.30151,1.46579 1.28245,1.94957 0.47086,0.23221 0.94064,0.26877 0.48913,-0.003 1.07448,-0.29936 0.58536,-0.2967 1.32552,-0.90729 0.74016,-0.61059 1.71307,-1.59421 1.61525,-1.59368 2.97946,-2.57944 1.32498,-1.00511 2.55535,-1.42273 1.23036,-0.41762 2.38547,-0.28698 1.11586,0.11129 2.29299,0.69182 1.37332,0.67729 2.18171,1.80769 0.80839,1.1304 1.07066,2.57684 0.22304,1.42709 -0.13928,3.15087 -0.30373,1.70389 -1.21323,3.54806 -1.16107,2.35426 -2.65914,3.90817 -1.49807,1.5539 -3.03966,2.30584 l -2.20748,-2.94236 z"
             id="path4556" />
          <path
             style="fill:#ffffff;stroke:#ffffff;stroke-width:0.71632767px;stroke-opacity:1"
             inkscape:connector-curvature="0"
             d="m 845.56829,-942.26279 1.57895,-2.57289 6.11528,3.75286 3.2952,-5.36951 2.90849,1.78489 -3.2952,5.36952 9.35936,5.74371 q 1.08136,0.66361 1.96443,0.89755 0.90595,0.19665 1.60512,0.0611 0.69918,-0.13558 1.26616,-0.5576 0.55257,-0.4822 0.94159,-1.1161 0.57208,-0.9322 0.77721,-1.93561 0.20512,-1.00341 0.25262,-2.00089 l 3.25684,0.71539 q -0.0102,1.02036 -0.37807,2.53988 -0.33057,1.5424 -1.17725,2.92207 -1.71625,2.79662 -4.55024,3.31602 -2.81111,0.48212 -6.27892,-1.64603 l -9.09835,-5.58353 -2.05949,3.35595 -2.90849,-1.7849 2.10526,-3.43052 -5.6805,-4.46134 z"
             id="path4558" />
          <path
             style="fill:#ffffff;stroke:#ffffff;stroke-width:0.71632767px;stroke-opacity:1"
             inkscape:connector-curvature="0"
             d="m 868.3127,-945.20387 q -2.00712,-1.55253 -3.25557,-3.51383 -1.28306,-1.98806 -1.7069,-4.08585 -0.39706,-2.13239 0.0808,-4.25177 0.5046,-2.15398 1.95007,-4.02268 1.20455,-1.55724 2.72188,-2.37476 1.5095,-0.87888 3.02816,-1.19757 l -1.45343,-1.12425 2.19496,-2.83766 13.63458,10.54655 q 1.31501,1.01718 2.2121,0.71549 0.88925,-0.36306 1.47815,-1.12438 l 1.91379,2.53126 q -2.56971,3.32213 -5.8043,1.92634 0.23247,0.84356 0.35788,1.82553 0.11756,0.9206 -0.003,1.93393 -0.12009,1.01332 -0.54705,2.06584 -0.42696,1.05251 -1.23,2.09068 -1.31162,1.69567 -3.12015,2.67512 -1.78175,0.94484 -3.84952,1.11534 -2.041,0.1359 -4.24526,-0.51822 -2.21209,-0.7155 -4.35764,-2.37511 z m 13.33949,-3.73067 q 1.01718,-1.31501 1.30439,-2.97342 0.28721,-1.65841 -0.10069,-3.23061 l -9.65495,-7.46824 q -1.38024,0.42576 -2.64424,1.2733 -1.27184,0.78616 -2.23548,2.03196 -0.96364,1.2458 -1.2822,2.65871 -0.31856,1.41292 -0.008,2.87021 0.30301,1.39591 1.2276,2.77482 0.92458,1.37891 2.41262,2.52993 1.45343,1.12425 3.02045,1.67263 1.5324,0.52161 3.02104,0.45625 1.45403,-0.0921 2.71478,-0.72093 1.28751,-0.66342 2.22439,-1.87461 z"
             id="path4560" />
          <path
             style="fill:#ffffff;stroke:#ffffff;stroke-width:0.71632767px;stroke-opacity:1"
             inkscape:connector-curvature="0"
             d="m 892.30789,-968.34596 q 1.71086,1.62923 3.19836,1.71665 1.51768,0.0557 2.72451,-1.21156 0.57324,-0.60197 0.98959,-1.29294 0.38466,-0.72114 0.61695,-1.34572 l 2.97659,1.50545 q -0.28961,0.81165 -0.91413,1.8481 -0.59434,1.00477 -1.55981,2.01862 -1.05598,1.10889 -2.27793,1.75766 -1.19177,0.61709 -2.52087,0.68052 -1.32909,0.0634 -2.76683,-0.52034 -1.40758,-0.61544 -2.89666,-2.03347 l -18.28085,-17.40854 2.71537,-2.85143 17.99571,17.137 z"
             id="path4562" />
          <path
             style="fill:#ffffff;stroke:#ffffff;stroke-width:0.71632767px;stroke-opacity:1"
             inkscape:connector-curvature="0"
             d="m 896.71854,-978.44169 q -1.65091,-1.92701 -2.47607,-4.10059 -0.85363,-2.20679 -0.84362,-4.34695 0.0432,-2.16861 0.94059,-4.14721 0.93058,-2.00705 2.7247,-3.54411 1.4951,-1.28088 3.1466,-1.774 1.65627,-0.5548 3.208,-0.55917 l -1.19549,-1.39542 2.7244,-2.33406 11.21483,13.09043 q 1.08163,1.26253 2.02124,1.14887 0.94437,-0.17535 1.6753,-0.80156 l 1.36122,2.86653 q -3.18954,2.73254 -6.07423,0.71032 0.0567,0.87316 -0.0194,1.86017 -0.0714,0.92533 -0.39433,1.8933 -0.32292,0.96798 -0.95428,1.91215 -0.63136,0.94417 -1.62809,1.79809 -1.628,1.39474 -3.59747,1.98743 -1.93624,0.56422 -3.99566,0.31221 -2.0262,-0.28047 -4.0522,-1.36765 -2.02124,-1.14886 -3.78601,-3.20878 z m 13.8187,-0.95044 q 1.26253,-1.08164 1.87981,-2.64745 0.61728,-1.56582 0.55598,-3.184 l -7.94146,-9.26961 q -1.43788,0.13726 -2.84739,0.71111 -1.40475,0.51215 -2.60083,1.53686 -1.19607,1.0247 -1.79431,2.34376 -0.59824,1.31907 -0.58911,2.80911 0.0139,1.42835 0.6399,2.966 0.62601,1.53765 1.84997,2.9663 1.19548,1.39542 2.61888,2.24994 1.39494,0.82128 2.86594,1.05891 1.44254,0.2044 2.80454,-0.15592 1.39523,-0.38877 2.55808,-1.38501 z"
             id="path4564" />
          <path
             style="fill:#ffffff;stroke:#ffffff;stroke-width:0.71632767px;stroke-opacity:1"
             inkscape:connector-curvature="0"
             d="m 940.91234,-990.13203 q 0.46407,0.68964 0.55263,1.52652 0.12485,0.81245 -0.17467,1.69954 -0.2751,0.92338 -1.02342,1.84882 -0.74832,0.92543 -1.98242,1.75588 -0.98002,0.65948 -2.00957,1.08862 -1.00513,0.46545 -2.10864,0.62796 l -0.66765,-2.87292 q 1.61303,-0.18898 3.02861,-1.14156 0.94372,-0.63506 1.34095,-1.37696 0.39722,-0.7419 -0.0669,-1.43154 -0.43965,-0.65335 -1.65273,-0.5753 -1.17679,0.0536 -3.57239,1.66568 l -0.98791,-3.97574 q -1.8169,0.74803 -3.68537,0.7925 -1.83217,0.0201 -3.57005,-0.60342 -1.76231,-0.65976 -3.3333,-1.9756 -1.571,-1.31584 -2.86553,-3.23958 -1.36781,-2.03264 -1.94759,-4.22637 -0.56791,-2.2546 -0.27384,-4.4036 0.29407,-2.149 1.4508,-4.0348 1.16861,-1.9465 3.27384,-3.3632 1.63336,-1.0991 3.02657,-1.6148 1.3932,-0.5156 2.88478,-0.7283 l 0.8763,3.418 q -1.39457,0.2002 -2.44855,0.593 -1.0784,0.3566 -2.20361,1.1138 -1.27039,0.8549 -2.07807,2.0839 -0.77139,1.2046 -0.95929,2.6494 -0.21233,1.4085 0.17069,2.9964 0.41931,1.5635 1.51845,3.19686 1.00143,1.48817 2.25558,2.48989 1.29044,0.9773 2.71216,1.44439 1.39729,0.43079 2.81628,0.26692 1.41899,-0.16388 2.72568,-1.04318 1.37929,-0.92816 2.16391,-1.87801 0.78462,-0.94986 1.4946,-2.32409 l 2.87263,2.07467 q -0.67369,1.34981 -1.72426,2.53136 -1.05056,1.18155 -2.63508,2.35328 l 0.56723,2.09676 q 1.85115,-1.24568 3.47741,-1.1799 1.66256,0.0413 2.7617,1.67472 z"
             id="path4566" />
          <path
             style="fill:#ffffff;stroke:#ffffff;stroke-width:0.71632767px;stroke-opacity:1"
             inkscape:connector-curvature="0"
             d="m 936.18166,-1008.1594 q -1.16213,-2.2558 -1.4639,-4.561 -0.32181,-2.3442 0.18138,-4.4244 0.54208,-2.1002 1.87145,-3.8186 1.36827,-1.7384 3.46844,-2.8204 1.75015,-0.9016 3.47085,-1.0007 1.73956,-0.1579 3.25049,0.1956 l -0.84154,-1.6335 3.18915,-1.643 7.89444,15.3235 q 0.76139,1.4779 1.70189,1.5839 0.95935,0.047 1.81498,-0.3936 l 0.66362,3.1031 q -3.73365,1.9235 -6.07435,-0.7093 -0.14612,0.8627 -0.4478,1.8055 -0.28283,0.884 -0.82024,1.7514 -0.5374,0.8674 -1.36944,1.6406 -0.83205,0.7732 -1.99881,1.3743 -1.90572,0.9818 -3.95877,1.1044 -2.01417,0.1026 -3.96,-0.6175 -1.90693,-0.7401 -3.62768,-2.2651 -1.70189,-1.5839 -2.94416,-3.9952 z m 13.66552,2.2613 q 1.4779,-0.7614 2.43957,-2.1427 0.96167,-1.3813 1.27513,-2.97 l -5.59023,-10.8509 q -1.43078,-0.198 -2.93463,0.035 -1.48498,0.1745 -2.8851,0.8958 -1.40011,0.7213 -2.28636,1.8669 -0.88625,1.1456 -1.22093,2.5976 -0.31581,1.3931 -0.0612,3.0336 0.25461,1.6406 1.11619,3.3129 0.84154,1.6335 2.02956,2.7932 1.16799,1.1207 2.54457,1.6911 1.35654,0.5315 2.76493,0.495 1.44727,-0.057 2.8085,-0.7579 z m -5.05322,-26.3349 q -0.35944,1.0218 -0.9923,2.0861 -0.614,1.0053 -1.81966,1.6264 -0.77784,0.4008 -1.4614,0.5069 -0.66471,0.047 -1.29053,0.074 -0.62582,0.027 -1.27049,0.1132 -0.62582,0.027 -1.28698,0.3678 -0.85563,0.4408 -1.33528,1.2292 -0.47966,0.7885 -0.78253,1.6335 l -2.60349,-1.71 q 0.29932,-1.1385 1.06772,-2.3218 0.76839,-1.1833 1.93515,-1.7844 0.73895,-0.3807 1.40366,-0.4278 0.68356,-0.1061 1.27049,-0.1132 0.62582,-0.027 1.25163,-0.054 0.60578,-0.066 1.22806,-0.3866 0.85562,-0.4408 1.33646,-1.1314 0.4608,-0.7296 0.72596,-1.4567 l 2.62353,1.7489 z"
             id="path4568" />
          <path
             style="fill:#ffffff;stroke:#ffffff;stroke-width:0.71632767px;stroke-opacity:1"
             inkscape:connector-curvature="0"
             d="m 978.60492,-1027.0187 q -0.57514,-1.6064 -1.62675,-2.8563 -1.01042,-1.2647 -2.3412,-1.9964 -1.2896,-0.7465 -2.78768,-0.9072 -1.47164,-0.2166 -2.95447,0.3143 -3.25398,1.165 -4.29949,3.9557 -1.0455,2.7907 0.22274,6.333 0.57514,1.6064 1.60031,2.9123 1.05161,1.2499 2.35595,2.0376 1.33078,0.7318 2.80242,0.9484 1.49809,0.1607 2.98092,-0.3702 1.60639,-0.5751 2.67681,-1.6089 1.07043,-1.0339 1.56673,-2.3733 0.52276,-1.3954 0.4597,-2.9992 -0.0219,-1.6186 -0.65599,-3.3898 z m -17.5468,6.2823 q -0.92906,-2.595 -0.84262,-4.9494 0.0717,-2.3956 0.956,-4.3387 0.9255,-1.9578 2.58122,-3.4335 1.69691,-1.4904 3.96234,-2.3015 2.22424,-0.7963 4.44035,-0.7069 2.2573,0.075 4.21508,1.0003 1.95778,0.9255 3.51893,2.69 1.56114,1.7646 2.47545,4.3183 0.91432,2.5538 0.84262,4.9494 -0.0453,2.3397 -0.956,4.3387 -0.91075,1.9989 -2.59291,3.5306 -1.65572,1.4757 -3.92115,2.2868 -2.30663,0.8258 -4.57867,0.7099 -2.23085,-0.1307 -4.20338,-1.0974 -1.93134,-0.9814 -3.49249,-2.746 -1.51995,-1.7793 -2.40477,-4.2506 z"
             id="path4570" />
          <path
             style="fill:#ffffff;stroke:#ffffff;stroke-width:0.71632767px;stroke-opacity:1"
             inkscape:connector-curvature="0"
             d="m 1012.7537,-1022.7155 q -2.0776,0.3063 -4.0599,-0.2416 -1.9391,-0.5543 -3.5476,-1.8649 -1.5651,-1.317 -2.6569,-3.323 -1.0982,-2.0492 -1.4939,-4.7326 -0.3765,-2.5537 0.083,-4.8327 0.4969,-2.3286 1.6089,-4.0846 1.1488,-1.8057 2.8326,-2.9827 1.6839,-1.1769 3.7181,-1.4769 2.2507,-0.3319 3.9861,0.3409 1.7788,0.6664 2.8281,1.4846 l -1.736,-11.7727 3.8954,-0.5745 3.9187,26.5752 q 0.2426,1.6447 1.0982,2.0492 0.8926,0.3548 1.8448,0.2144 l -0.3756,3.151 q -4.1118,0.6063 -5.5058,-2.5491 -0.7912,1.5319 -2.3133,2.9061 -1.5284,1.331 -4.1253,1.7139 z m 0.355,-3.5902 q 1.6015,-0.2362 2.9213,-1.1826 1.3567,-0.996 2.1735,-2.3547 l -1.6467,-11.1668 q -0.9755,-0.9175 -2.5748,-1.5661 -1.5623,-0.6983 -3.3801,-0.4303 -1.5582,0.2298 -2.7609,1.0705 -1.1594,0.8343 -1.9024,2.0937 -0.743,1.2593 -0.9893,2.8877 -0.2528,1.5851 0.01,3.3596 0.2681,1.8179 1.0108,3.2562 0.7428,1.4382 1.8177,2.4295 1.1117,0.9417 2.4626,1.4058 1.3878,0.4145 2.8594,0.1975 z"
             id="path4572" />
          <path
             style="fill:#ffffff;stroke:#ffffff;stroke-width:0.71632767px;stroke-opacity:1"
             inkscape:connector-curvature="0"
             d="m 1032.624,-1035.1227 q 0.4647,3.1842 2.3416,4.9367 1.8769,1.7525 4.8949,1.6854 1.9683,-0.044 3.5341,-0.4725 1.5649,-0.4724 2.9937,-1.1605 l 0.9934,3.3474 q -1.558,0.7786 -3.5166,1.2598 -1.9585,0.4811 -4.4079,0.5356 -2.4494,0.054 -4.4352,-0.6891 -1.9867,-0.7873 -3.4194,-2.2433 -1.39,-1.5007 -2.1822,-3.6711 -0.7931,-2.2142 -0.8564,-5.0572 -0.056,-2.5369 0.6386,-4.7404 0.6949,-2.2035 2.0158,-3.8083 1.32,-1.6485 3.1813,-2.5651 1.8604,-0.9603 4.1785,-1.0118 2.4494,-0.054 4.305,0.7357 1.8555,0.7902 3.1123,2.2064 1.2568,1.4161 1.9119,3.327 0.6551,1.9109 0.7028,4.0542 0.034,1.5308 -0.065,2.9771 l -15.9211,0.354 z m 5.9426,-10.2408 q -2.5806,0.057 -4.2038,1.8439 -1.5794,1.7855 -1.8535,5.2049 l 12.4657,-0.2771 q -0.074,-3.3242 -1.7759,-5.0806 -1.702,-1.7563 -4.6325,-1.6911 z"
             id="path4574" />
          <path
             style="fill:#ffffff;stroke:#ffffff;stroke-width:0.71632767px;stroke-opacity:1"
             inkscape:connector-curvature="0"
             d="m 1068.2189,-1030.346 q 1.3412,1.5506 3.149,2.6902 1.8079,1.1396 4.3981,1.5654 3.1083,0.511 5.1344,-0.4861 2.026,-0.997 2.388,-3.1987 0.149,-0.9066 0.018,-1.7263 -0.1313,-0.8196 -0.7948,-1.6381 -0.6132,-0.8545 -1.8812,-1.7723 -1.2176,-0.9539 -3.2413,-2.129 -2.1822,-1.2898 -3.6807,-2.4229 -1.4483,-1.1692 -2.2709,-2.3685 -0.8155,-1.2425 -1.0414,-2.5654 -0.2188,-1.3661 0.051,-3.0066 0.2625,-1.5973 1.1443,-2.9155 0.9249,-1.311 2.3904,-2.1342 1.5157,-0.8593 3.5145,-1.1514 2.0421,-0.2851 4.5028,0.1195 2.6766,0.44 4.6997,1.3489 2.0302,0.8658 3.9391,2.1994 l -2.0858,3.2484 q -1.3259,-1.1047 -3.2194,-1.9924 -1.8434,-0.9237 -4.0019,-1.2785 -2.8493,-0.4684 -4.6743,0.3843 -1.8179,0.8096 -2.1159,2.6228 -0.142,0.8634 -0.04,1.5896 0.1525,0.6901 0.7368,1.4512 0.6346,0.7251 1.78,1.5784 1.1887,0.8605 3.1763,1.9853 2.3478,1.3614 3.9114,2.6382 1.5636,1.2768 2.4152,2.5695 0.8515,1.2928 1.0704,2.6589 0.2619,1.3731 0.01,2.9273 -0.3477,2.1153 -1.4376,3.621 -1.0899,1.5056 -2.7493,2.4299 -1.6092,0.8883 -3.7376,1.1591 -2.1212,0.2277 -4.4956,-0.1626 -3.1515,-0.5181 -5.6069,-1.7641 -2.4483,-1.2892 -3.9912,-2.9617 l 2.64,-3.113 z"
             id="path4576" />
          <path
             style="fill:#ffffff;stroke:#ffffff;stroke-width:0.71632767px;stroke-opacity:1"
             inkscape:connector-curvature="0"
             d="m 1111.2369,-1025.9559 q 0.4889,-1.6347 0.3827,-3.2647 -0.064,-1.6175 -0.7023,-2.9956 -0.5963,-1.3656 -1.7076,-2.3829 -1.0569,-1.0468 -2.5659,-1.498 -3.3113,-0.9903 -5.8075,0.6377 -2.4961,1.628 -3.5742,5.2328 -0.4888,1.6347 -0.4371,3.2941 0.1061,1.63 0.6898,3.0375 0.6381,1.3781 1.695,2.4249 1.1114,1.0173 2.6203,1.4686 1.6348,0.4889 3.1096,0.2906 1.4749,-0.1982 2.6685,-0.9828 1.2481,-0.814 2.1479,-2.1432 0.9418,-1.3166 1.4808,-3.119 z m -17.8561,-5.3402 q 0.7898,-2.6406 2.2549,-4.4857 1.4776,-1.887 3.3415,-2.9278 1.9058,-1.0283 4.114,-1.2356 2.2501,-0.1946 4.5555,0.4948 2.2634,0.6769 3.9953,2.0625 1.7737,1.3981 2.802,3.3039 1.0283,1.9058 1.2399,4.2523 0.2115,2.3465 -0.5657,4.9453 -0.7772,2.5987 -2.2548,4.4857 -1.4232,1.8576 -3.3415,2.9278 -1.9184,1.0703 -4.181,1.3069 -2.2082,0.2072 -4.5136,-0.4823 -2.3473,-0.702 -4.1085,-2.142 -1.7193,-1.4275 -2.7351,-3.3752 -0.9739,-1.9352 -1.1854,-4.2817 -0.1696,-2.3339 0.5825,-4.8489 z"
             id="path4578" />
          <path
             style="fill:#ffffff;stroke:#ffffff;stroke-width:0.71632767px;stroke-opacity:1"
             inkscape:connector-curvature="0"
             d="m 1139.3224,-1032.7817 q -0.6594,-0.8005 -1.4738,-1.5714 -0.8145,-0.7708 -1.9835,-1.264 -1.693,-0.7141 -3.2002,-0.068 -1.4498,0.623 -2.3171,2.6788 l -1.1392,2.7008 6.2077,2.6186 -1.3263,3.1443 -6.2078,-2.6187 -7.1928,17.0512 -3.6279,-1.5303 7.1928,-17.0513 -3.2248,-1.3603 1.3263,-3.1442 3.2248,1.3603 1.0373,-2.4589 q 0.7482,-1.7737 1.8674,-2.9635 1.1191,-1.1898 2.4714,-1.8064 1.3522,-0.6167 2.9035,-0.5796 1.5513,0.037 3.1234,0.7003 1.6931,0.7142 2.7323,1.6274 1.0966,0.8899 1.9872,1.9304 l -2.3807,2.6044 z"
             id="path4580" />
          <path
             style="fill:#ffffff;stroke:#ffffff;stroke-width:0.71632767px;stroke-opacity:1"
             inkscape:connector-curvature="0"
             d="m 1147.5101,-1029.7621 2.6709,1.407 -3.344,6.3481 5.5739,2.9361 -1.5904,3.0193 -5.574,-2.9362 -5.1179,9.7157 q -0.5913,1.1225 -0.7669,2.019 -0.1368,0.9169 0.044,1.6057 0.1811,0.6887 0.6394,1.2268 0.5173,0.5198 1.1754,0.8665 0.9677,0.5097 1.9824,0.6486 1.0146,0.139 2.0131,0.121 l -0.5004,3.2967 q -1.0188,0.0567 -2.5592,-0.21079 -1.5608,-0.22877 -2.9929,-0.98321 -2.9031,-1.5293 -3.6072,-4.3231 -0.6653,-2.7735 1.231,-6.3733 l 4.9752,-9.4447 -3.4837,-1.8352 1.5904,-3.0192 3.5612,1.8759 4.0794,-5.9607 z"
             id="path4582" />
          <path
             style="fill:#ffffff;stroke:#ffffff;stroke-width:0.71632767px;stroke-opacity:1"
             inkscape:connector-curvature="0"
             d="m 1183.4599,-999.76005 2.1256,3.05635 -18.4206,13.55287 -3.5368,-2.50014 5.4862,-16.85623 -14.096,10.77002 -3.5368,-2.50014 6.667,-21.86138 3.6975,1.06 -5.8952,18.49586 13.9803,-10.53036 3.4653,2.4496 -5.3704,16.61659 15.4339,-11.75304 z"
             id="path4584" />
          <path
             style="fill:#ffffff;stroke:#ffffff;stroke-width:0.71632767px;stroke-opacity:1"
             inkscape:connector-curvature="0"
             d="m 1182.6961,-985.00331 q 1.7662,-1.82202 3.8541,-2.84461 2.1185,-1.05401 4.2504,-1.24192 2.1633,-0.15746 4.2164,0.55311 2.0845,0.74102 3.7808,2.38534 1.4137,1.37026 2.0574,2.9691 0.7055,1.59787 0.8534,3.14255 l 1.2789,-1.31939 2.5759,2.49692 -11.9974,12.37713 q -1.1571,1.19373 -0.9571,2.11881 0.2619,0.92411 0.9531,1.59402 l -2.7284,1.62042 q -3.0158,-2.92323 -1.2689,-5.98253 -0.8642,0.13722 -1.854,0.15264 -0.928,0.0145 -1.9217,-0.21758 -0.9937,-0.23204 -1.9922,-0.7734 -0.9985,-0.54136 -1.9409,-1.45487 -1.5393,-1.49206 -2.3115,-3.39829 -0.7409,-1.87578 -0.6804,-3.94968 0.092,-2.04345 0.9872,-4.1613 0.957,-2.1188 2.8449,-4.06647 z m 2.2241,13.67163 q 1.1937,1.15711 2.8099,1.62697 1.6162,0.46986 3.2218,0.25921 l 8.4956,-8.76452 q -0.2696,-1.41902 -0.9713,-2.76944 -0.6399,-1.35138 -1.7708,-2.44759 -1.1309,-1.09621 -2.4996,-1.56992 -1.3687,-0.47371 -2.8515,-0.32686 -1.421,0.1459 -2.8942,0.9114 -1.4731,0.7655 -2.7825,2.1163 -1.2789,1.31939 -1.9982,2.8157 -0.6888,1.4649 -0.7894,2.95157 -0.07,1.45526 0.4146,2.77811 0.5161,1.35331 1.6156,2.41907 z"
             id="path4586" />
          <path
             style="fill:#ffffff;stroke:#ffffff;stroke-width:0.71632767px;stroke-opacity:1"
             inkscape:connector-curvature="0"
             d="m 1217.3389,-959.24326 q -0.2629,-0.86278 -0.9906,-1.737 -0.7838,-0.94146 -1.943,-1.51341 -1.1313,-0.53833 -2.5261,-0.57264 -1.3668,-6.9e-4 -3.0084,0.62586 -1.5799,0.63219 -3.2948,2.05973 l -8.1705,6.80184 -2.5192,-3.02614 17.4843,-14.55538 2.4353,2.92527 -3.7995,3.163 q 1.0589,-0.36917 2.2521,-0.50861 1.1932,-0.13944 2.3246,0.0572 1.1594,0.23025 2.2514,0.85818 1.1257,0.59994 2.0494,1.70952 0.4198,0.50436 0.7445,1.03108 0.3862,0.53235 0.5932,0.98618 l -3.8827,1.69533 z"
             id="path4588" />
          <path
             style="fill:#ffffff;stroke:#ffffff;stroke-width:0.71632767px;stroke-opacity:1"
             inkscape:connector-curvature="0"
             d="m 1214.5816,-947.49067 q -2.424,2.11642 -2.8794,4.64359 -0.4553,2.52718 1.237,5.027 1.1036,1.63032 2.3126,2.71385 1.2452,1.05901 2.598,1.88669 l -2.2747,2.64928 q -1.4988,-0.88733 -2.9647,-2.27239 -1.466,-1.38507 -2.8394,-3.41392 -1.3734,-2.02884 -1.8249,-4.10062 -0.4153,-2.0963 0.032,-4.08951 0.5077,-1.9815 1.9023,-3.82367 1.4307,-1.86669 3.7856,-3.46084 2.1013,-1.42248 4.3297,-2.03285 2.2284,-0.61037 4.293,-0.37018 2.1008,0.21567 3.8799,1.28303 1.8154,1.04282 3.1153,2.96298 1.3734,2.02884 1.7151,4.01646 0.3417,1.98762 -0.1671,3.81138 -0.5089,1.82376 -1.7596,3.41009 -1.2508,1.58633 -3.026,2.78807 -1.268,0.85839 -2.5372,1.55904 l -8.9272,-13.18748 z m 11.8271,-0.55704 q -1.447,-2.13753 -3.8282,-2.53323 -2.3566,-0.35947 -5.3787,1.26368 l 6.9897,10.32537 q 2.7535,-1.86393 3.3069,-4.24619 0.5535,-2.38226 -1.0897,-4.80963 z"
             id="path4590" />
          <path
             style="fill:#ffffff;stroke:#ffffff;stroke-width:0.71632767px;stroke-opacity:1"
             inkscape:connector-curvature="0"
             d="m 1231.7484,-895.39016 -7.3253,-16.6607 28.0348,-12.32634 1.6729,3.80473 -24.6306,10.82957 5.6525,12.85597 -3.4043,1.49677 z"
             id="path4592" />
          <path
             style="fill:#ffffff;stroke:#ffffff;stroke-width:0.71632767px;stroke-opacity:1"
             inkscape:connector-curvature="0"
             d="m 1234.046,-888.03095 -1.2787,-3.72407 21.5168,-7.38834 1.2788,3.72407 -21.5169,7.38834 z m 24.5602,-10.51492 q -0.3694,-1.07584 0.1054,-2.11779 0.5305,-1.01477 1.6063,-1.38419 1.2,-0.41204 2.145,0.0499 0.945,0.46189 1.357,1.66187 0.3694,1.07584 -0.161,2.09061 -0.4749,1.04195 -1.5507,1.41136 -1.2,0.41204 -2.145,-0.0498 -0.945,-0.46189 -1.357,-1.66187 z"
             id="path4594" />
          <path
             style="fill:#ffffff;stroke:#ffffff;stroke-width:0.71632767px;stroke-opacity:1"
             inkscape:connector-curvature="0"
             d="m 1256.5994,-889.62195 2.3128,3.1199 -16.2893,12.05199 20.0436,2.97356 -0.6265,3.62886 -23.2799,-3.65307 -0.9969,-3.98983 18.8362,-14.13141 z"
             id="path4596" />
          <path
             style="fill:#ffffff;stroke:#ffffff;stroke-width:0.71632767px;stroke-opacity:1"
             inkscape:connector-curvature="0"
             d="m 1261.9719,-849.19413 q 0.2252,-0.87336 0.06,-1.99873 -0.1784,-1.21194 -0.8699,-2.30413 -0.685,-1.04891 -1.8577,-1.80494 -1.1662,-0.71275 -2.8938,-1.03331 -1.678,-0.28364 -3.8854,0.0413 l -10.5179,1.54836 -0.5735,-3.89552 22.5075,-3.31335 0.5543,3.76567 -4.891,0.72001 q 1.0961,0.23663 2.1872,0.73933 1.0911,0.5027 1.9544,1.26005 0.8696,0.80063 1.4745,1.90557 0.6481,1.09856 0.8584,2.52692 0.096,0.64925 0.098,1.26797 0.052,0.65562 -0.01,1.15085 l -4.1975,-0.57607 z"
             id="path4598" />
          <path
             style="fill:#ffffff;stroke:#ffffff;stroke-width:0.71632767px;stroke-opacity:1"
             inkscape:connector-curvature="0"
             d="m 1253.492,-840.60027 q -3.1717,0.54368 -4.877,2.46359 -1.7052,1.91991 -1.5631,4.93531 0.093,1.96657 0.5602,3.52128 0.5111,1.55266 1.2346,2.96391 l -3.3217,1.07633 q -0.8171,-1.53823 -1.3468,-3.4842 -0.5297,-1.94597 -0.6451,-4.39326 -0.1153,-2.44728 0.5786,-4.45092 0.7377,-2.0057 2.1576,-3.47418 1.4657,-1.42684 3.6158,-2.27275 2.1937,-0.84797 5.0343,-0.98185 2.5347,-0.11947 4.7548,0.52047 2.2201,0.63994 3.8572,1.92054 1.6808,1.27853 2.6434,3.1165 1.0063,1.83591 1.1155,4.15209 0.1153,2.44729 -0.6285,4.32188 -0.7438,1.8746 -2.1283,3.16621 -1.3845,1.29161 -3.2785,1.99406 -1.894,0.70245 -4.0354,0.80338 -1.5296,0.0721 -2.9779,0.009 l -0.7497,-15.90735 z m 10.3854,5.68612 q -0.1215,-2.57839 -1.9478,-4.15666 -1.8243,-1.53456 -5.2495,-1.72352 l 0.587,12.45493 q 3.3214,-0.15654 5.0348,-1.90165 1.7135,-1.7451 1.5755,-4.6731 z"
             id="path4600" />
        </g>
      </g>
    </g>
  </g>
</svg>
